<svg width="70" height="70" viewBox="0 0 70 70" fill="none" xmlns="http://www.w3.org/2000/svg">
<path d="M33.446 41.119C32.4141 41.0462 31.3875 40.9044 30.3732 40.6944V40.5324V40.5327C30.3586 39.7988 30.0613 39.1023 29.5486 38.6001C29.0937 38.1299 28.4693 37.8826 27.8299 37.9188C27.2249 37.9468 26.32 37.5335 26.1543 37.1034C25.6187 35.6792 24.3766 34.9702 23.092 35.3442C22.5587 35.5101 22.09 35.8486 21.7535 36.3107C21.128 35.6854 20.5682 34.9928 20.083 34.244C19.8877 33.9818 19.5311 33.9222 19.267 34.1077C19.003 34.2935 18.922 34.6605 19.0818 34.9479C19.707 35.8973 20.4382 36.7653 21.2609 37.5335C21.2071 37.8985 21.2441 38.2713 21.3677 38.6168C21.876 39.9288 22.7346 41.0609 23.8415 41.8786V43.7664V43.766C23.8415 44.5642 24.2496 45.3016 24.9121 45.7005C25.5746 46.0998 26.391 46.0998 27.0535 45.7005C27.716 45.3016 28.1241 44.5641 28.1241 43.766V43.1182C28.9024 43.027 29.6011 42.5786 30.0303 41.8953C31.1383 42.1263 32.2598 42.2814 33.3872 42.3589H33.4302H33.4298C33.7428 42.3398 33.99 42.0749 33.9997 41.7485C34.0094 41.4216 33.7786 41.1411 33.4675 41.1022L33.446 41.119ZM27.8461 41.8954H27.5089C27.3498 41.897 27.1967 41.9609 27.0805 42.0738C26.9677 42.193 26.9042 42.3535 26.9039 42.5207V43.7719C26.8669 44.2784 26.4621 44.6699 25.9751 44.6699C25.4877 44.6699 25.0829 44.2784 25.0459 43.7719V41.5379C25.0448 41.3248 24.9402 41.1269 24.7677 41.0131C23.7407 40.3256 22.9438 39.3225 22.4871 38.1425C22.3978 37.871 22.4232 37.5726 22.5565 37.3213C22.7294 36.9489 23.0409 36.6664 23.4185 36.5395C23.5331 36.5036 23.6522 36.4849 23.7717 36.4837C24.0627 36.5067 24.3398 36.6209 24.5672 36.8114C24.7946 37.0019 24.9616 37.2594 25.046 37.5504C25.4583 38.6283 26.9947 39.2259 27.9156 39.153V39.1534C28.2248 39.1444 28.5232 39.2698 28.7402 39.4993C29.0151 39.7611 29.1753 40.1281 29.1846 40.516C29.1756 41.2803 28.5792 41.8954 27.8461 41.8954Z" fill="#F8F8F8"/>
<path d="M38.527 40.7514C38.2064 40.7936 37.9748 41.0914 38.0022 41.4264C38.0296 41.7613 38.3063 42.0139 38.6291 41.9994H38.7369C41.9662 41.3893 46.4759 39.8617 49.8399 36.0561C49.9491 35.9331 50.0065 35.77 49.9994 35.6029C49.9923 35.4358 49.9213 35.2785 49.8023 35.1661C49.6852 35.0529 49.529 34.9935 49.3691 35.0006C49.2092 35.008 49.059 35.0818 48.952 35.2055C45.8144 38.7535 41.5467 40.1862 38.516 40.7627L38.527 40.7514Z" fill="#F8F8F8"/>
<path d="M35 19.0002C25.0772 19.0002 17 24.7237 17 31.7549V37.2405C17 44.2665 25.077 50 35 50C44.923 50 53 44.2765 53 37.2405V31.7711C53 24.7399 44.9286 19 35 19V19.0002ZM51.7787 37.2405C51.7787 43.6071 44.2552 48.7849 35 48.7849C25.7451 48.7846 18.2223 43.6074 18.2223 37.2405V31.7711C18.2223 25.4102 25.7511 20.2324 35.001 20.2324C44.2507 20.2324 51.7796 25.41 51.7796 31.7711L51.7787 37.2405Z" fill="#F8F8F8"/>
<path d="M27.2759 39.8564C26.4923 39.9761 25.6929 39.7357 25.159 39.2199C24.9407 38.9726 24.5343 38.9272 24.2516 39.1179C23.9686 39.3087 23.9166 39.6639 24.135 39.9112C24.8133 40.6014 25.8024 40.9993 26.8436 41C27.0496 40.9993 27.2548 40.9844 27.458 40.9553C27.8057 40.907 28.0443 40.6233 27.9931 40.3188C27.9665 40.1721 27.874 40.0409 27.7363 39.9539C27.5985 39.8672 27.4267 39.8321 27.2588 39.8564L27.2759 39.8564Z" fill="#F8F8F8"/>
</svg>
