<svg width="30" height="30" viewBox="0 0 30 30" fill="none" xmlns="http://www.w3.org/2000/svg">
<path d="M10.7944 2.00811C10.9 2.07138 10.9922 2.15484 11.0656 2.25372C11.1389 2.35261 11.1921 2.46498 11.2221 2.58443C11.252 2.70387 11.2582 2.82805 11.2401 2.94986C11.2221 3.07167 11.1802 3.18874 11.1169 3.29436L6.34312 11.25H23.6569L18.8812 3.29436C18.7534 3.08103 18.7156 2.82566 18.7761 2.58445C18.8366 2.34323 18.9904 2.13591 19.2037 2.00811C19.4171 1.88031 19.6724 1.84249 19.9137 1.90297C20.1549 1.96345 20.3622 2.11728 20.49 2.33061L25.8431 11.25H28.125C28.6223 11.25 29.0992 11.4475 29.4508 11.7992C29.8025 12.1508 30 12.6277 30 13.125V15C30 15.4973 29.8025 15.9742 29.4508 16.3258C29.0992 16.6774 28.6223 16.875 28.125 16.875V25.3125C28.125 26.5557 27.6311 27.748 26.7521 28.6271C25.873 29.5061 24.6807 30 23.4375 30H6.5625C5.3193 30 4.12701 29.5061 3.24794 28.6271C2.36886 27.748 1.875 26.5557 1.875 25.3125V16.875C1.37772 16.875 0.900806 16.6774 0.549175 16.3258C0.197544 15.9742 0 15.4973 0 15V13.125C0 12.6277 0.197544 12.1508 0.549175 11.7992C0.900806 11.4475 1.37772 11.25 1.875 11.25H4.15688L9.50625 2.33061C9.56952 2.22496 9.65297 2.13281 9.75186 2.05943C9.85075 1.98604 9.96312 1.93285 10.0826 1.9029C10.202 1.87295 10.3262 1.86683 10.448 1.88488C10.5698 1.90294 10.6887 1.94481 10.7944 2.00811ZM3.75 16.875V25.3125C3.75 26.0584 4.04632 26.7738 4.57376 27.3012C5.10121 27.8287 5.81658 28.125 6.5625 28.125H23.4375C24.1834 28.125 24.8988 27.8287 25.4262 27.3012C25.9537 26.7738 26.25 26.0584 26.25 25.3125V16.875H3.75ZM1.875 13.125V15H28.125V13.125H1.875ZM7.5 18.75C7.74864 18.75 7.9871 18.8488 8.16291 19.0246C8.33873 19.2004 8.4375 19.4388 8.4375 19.6875V25.3125C8.4375 25.5611 8.33873 25.7996 8.16291 25.9754C7.9871 26.1512 7.74864 26.25 7.5 26.25C7.25136 26.25 7.0129 26.1512 6.83709 25.9754C6.66127 25.7996 6.5625 25.5611 6.5625 25.3125V19.6875C6.5625 19.4388 6.66127 19.2004 6.83709 19.0246C7.0129 18.8488 7.25136 18.75 7.5 18.75ZM11.25 18.75C11.4986 18.75 11.7371 18.8488 11.9129 19.0246C12.0887 19.2004 12.1875 19.4388 12.1875 19.6875V25.3125C12.1875 25.5611 12.0887 25.7996 11.9129 25.9754C11.7371 26.1512 11.4986 26.25 11.25 26.25C11.0014 26.25 10.7629 26.1512 10.5871 25.9754C10.4113 25.7996 10.3125 25.5611 10.3125 25.3125V19.6875C10.3125 19.4388 10.4113 19.2004 10.5871 19.0246C10.7629 18.8488 11.0014 18.75 11.25 18.75ZM15 18.75C15.2486 18.75 15.4871 18.8488 15.6629 19.0246C15.8387 19.2004 15.9375 19.4388 15.9375 19.6875V25.3125C15.9375 25.5611 15.8387 25.7996 15.6629 25.9754C15.4871 26.1512 15.2486 26.25 15 26.25C14.7514 26.25 14.5129 26.1512 14.3371 25.9754C14.1613 25.7996 14.0625 25.5611 14.0625 25.3125V19.6875C14.0625 19.4388 14.1613 19.2004 14.3371 19.0246C14.5129 18.8488 14.7514 18.75 15 18.75ZM18.75 18.75C18.9986 18.75 19.2371 18.8488 19.4129 19.0246C19.5887 19.2004 19.6875 19.4388 19.6875 19.6875V25.3125C19.6875 25.5611 19.5887 25.7996 19.4129 25.9754C19.2371 26.1512 18.9986 26.25 18.75 26.25C18.5014 26.25 18.2629 26.1512 18.0871 25.9754C17.9113 25.7996 17.8125 25.5611 17.8125 25.3125V19.6875C17.8125 19.4388 17.9113 19.2004 18.0871 19.0246C18.2629 18.8488 18.5014 18.75 18.75 18.75ZM22.5 18.75C22.7486 18.75 22.9871 18.8488 23.1629 19.0246C23.3387 19.2004 23.4375 19.4388 23.4375 19.6875V25.3125C23.4375 25.5611 23.3387 25.7996 23.1629 25.9754C22.9871 26.1512 22.7486 26.25 22.5 26.25C22.2514 26.25 22.0129 26.1512 21.8371 25.9754C21.6613 25.7996 21.5625 25.5611 21.5625 25.3125V19.6875C21.5625 19.4388 21.6613 19.2004 21.8371 19.0246C22.0129 18.8488 22.2514 18.75 22.5 18.75Z" fill="#F8F8F8"/>
</svg>
